<?xml version="1.0" standalone="no"?>
<!DOCTYPE svg PUBLIC "-//W3C//DTD SVG 20010904//EN"
 "http://www.w3.org/TR/2001/REC-SVG-20010904/DTD/svg10.dtd">
<svg version="1.0" xmlns="http://www.w3.org/2000/svg"
 width="920.000000pt" height="824.000000pt" viewBox="0 0 920.000000 824.000000"
 preserveAspectRatio="xMidYMid meet">

<g transform="translate(0.000000,824.000000) scale(0.100000,-0.100000)"
fill="#000000" stroke="none">
<path d="M3693 7163 c-13 -2 -23 -8 -23 -13 0 -5 12 -7 28 -4 15 3 50 9 77 13
l50 9 -55 -1 c-30 0 -65 -2 -77 -4z"/>
<path d="M3605 7130 c-3 -5 -1 -10 4 -10 6 0 11 5 11 10 0 6 -2 10 -4 10 -3 0
-8 -4 -11 -10z"/>
<path d="M4011 6982 c-2 -67 -50 -134 -137 -192 -35 -23 -64 -46 -64 -51 0 -6
8 -5 19 0 14 8 20 7 25 -5 4 -10 2 -13 -7 -8 -8 6 -8 3 1 -9 8 -9 10 -22 6
-29 -5 -10 -4 -11 7 0 7 6 19 12 27 12 7 0 20 7 29 15 8 8 19 12 25 9 14 -9
56 34 81 81 25 49 27 126 5 175 l-16 35 -1 -33z m-31 -163 c0 -5 -4 -9 -10 -9
-5 0 -10 7 -10 16 0 8 5 12 10 9 6 -3 10 -10 10 -16z"/>
<path d="M3421 6867 c0 -22 6 -51 15 -67 16 -26 62 -60 81 -60 4 0 -5 8 -22
18 -44 28 -59 49 -66 101 -6 46 -6 46 -8 8z"/>
<path d="M4753 6749 c-43 -8 -117 -42 -128 -59 -4 -6 20 -10 66 -10 61 0 70 2
59 15 -13 16 -6 35 15 35 21 0 28 -19 14 -36 -10 -12 -9 -13 5 -8 9 3 16 11
16 16 0 6 8 4 17 -3 11 -10 14 -10 9 -1 -4 6 -2 12 3 12 6 0 11 -6 11 -12 0
-9 4 -8 10 2 6 10 10 11 10 3 0 -7 3 -12 8 -11 4 1 19 -2 33 -6 14 -4 43 -6
65 -4 l39 3 -61 32 c-64 34 -121 44 -191 32z"/>
<path d="M6467 6678 c-9 -34 16 -63 77 -92 59 -28 70 -31 62 -17 -10 15 5 41
23 42 9 0 -8 12 -38 25 -30 14 -67 34 -82 45 -34 24 -35 24 -42 -3z"/>
<path d="M4526 6651 c-3 -5 -46 -6 -96 -3 -85 5 -91 4 -109 -19 -11 -13 -20
-20 -21 -15 0 5 -7 2 -16 -5 -14 -11 -19 -10 -34 9 -18 21 -21 22 -116 12 -68
-7 -101 -15 -107 -25 -9 -18 -47 -20 -47 -4 0 14 -98 5 -113 -10 -5 -5 -26 -6
-48 -4 -25 4 -39 2 -39 -6 0 -6 8 -11 19 -11 24 0 101 -84 101 -110 0 -12 6
-20 13 -19 42 5 54 -20 26 -52 -11 -13 -17 -29 -15 -36 3 -8 -2 -17 -10 -20
-15 -5 -15 -7 0 -15 23 -13 20 -33 -8 -52 -16 -10 -23 -22 -19 -34 4 -17 -3
-20 -53 -26 -32 -4 -64 -11 -71 -17 -7 -6 -19 -9 -27 -6 -8 3 -29 2 -48 -3
-74 -18 -88 -20 -88 -10 0 5 8 10 17 10 26 0 3 17 -37 28 -19 5 -34 14 -33 20
2 6 -8 28 -22 48 -14 20 -25 32 -25 25 0 -17 -25 -13 -43 7 -26 29 -21 42 13
36 23 -5 30 -3 30 9 0 9 -4 19 -10 22 -16 10 -12 65 5 65 8 0 15 8 15 18 0 10
4 22 10 28 5 5 7 20 3 32 -4 18 -11 22 -27 19 -11 -3 -69 -15 -128 -27 -60
-13 -108 -27 -108 -31 0 -5 6 -8 13 -6 6 1 12 -5 12 -13 0 -17 -55 -16 -66 2
-4 7 -24 6 -62 -2 -50 -12 -54 -15 -44 -31 9 -14 9 -21 0 -30 -9 -9 -18 -6
-38 10 -28 21 -64 21 -94 -3 -7 -5 -23 -10 -34 -11 -18 0 -21 -7 -22 -42 -1
-23 -4 -45 -7 -49 -14 -13 -28 9 -28 42 0 19 -3 34 -7 34 -5 0 -43 -12 -85
-26 -76 -25 -100 -44 -56 -44 13 0 44 -23 80 -59 57 -59 70 -85 46 -94 -7 -2
-3 -2 10 0 15 2 22 -2 22 -13 0 -11 -6 -15 -19 -11 -13 3 -18 0 -15 -8 16 -40
-55 -165 -94 -165 -8 0 -13 -3 -9 -6 10 -10 77 17 77 31 0 21 17 27 40 15 26
-14 18 -27 -23 -35 -31 -7 -148 -51 -212 -79 -72 -33 -72 -22 0 13 44 22 72
40 63 40 -9 1 -19 -3 -22 -8 -7 -11 -55 -11 -62 0 -3 5 -9 7 -14 4 -13 -8 -72
24 -65 35 3 6 -1 7 -10 4 -12 -5 -16 -2 -13 12 2 11 -2 18 -10 16 -16 -3 -52
73 -52 113 0 52 20 105 43 116 18 8 16 9 -12 4 -46 -7 -221 -84 -239 -106 -8
-9 -22 -15 -31 -13 -21 5 -52 -15 -33 -23 35 -14 143 -94 189 -139 56 -55 73
-96 54 -125 -16 -27 -14 -31 10 -19 11 7 23 10 25 7 3 -2 -9 -10 -26 -17 -17
-7 -38 -27 -47 -44 -30 -59 -41 -66 -110 -66 -58 0 -72 -5 -136 -42 -581 -339
-931 -728 -1048 -1165 -31 -112 -38 -368 -14 -484 21 -105 46 -183 92 -281
l36 -77 -17 -91 c-22 -120 -57 -190 -137 -275 -36 -38 -70 -81 -74 -94 -7 -23
-8 -23 -18 -5 -6 10 -19 42 -28 69 -10 28 -18 41 -18 29 -1 -34 67 -162 127
-237 61 -77 51 -76 171 -21 89 41 223 129 270 178 l34 35 91 -81 c117 -104
254 -207 383 -286 l103 -64 66 8 c42 4 65 3 61 -3 -3 -5 0 -10 8 -10 8 0 11 5
8 11 -3 6 0 5 8 -1 7 -7 24 -13 36 -13 13 0 59 -8 101 -17 42 -9 87 -16 99
-16 13 1 21 -2 19 -6 -2 -3 6 -7 19 -7 36 -3 133 -72 165 -119 16 -24 35 -63
42 -89 l12 -45 130 -45 c286 -99 720 -206 835 -206 20 0 41 -4 47 -9 5 -5 62
-16 128 -25 l118 -16 55 50 c30 28 65 53 77 56 15 3 43 -7 87 -33 72 -42 79
-49 79 -80 0 -19 7 -22 88 -29 48 -4 245 -8 437 -7 377 0 582 14 892 58 94 14
174 25 176 25 3 0 3 -18 0 -39 -10 -71 53 -137 199 -212 60 -30 65 -35 53 -49
-12 -13 -12 -19 -2 -30 9 -10 9 -11 0 -6 -7 4 -13 3 -13 -2 0 -5 -40 -17 -90
-28 -49 -10 -90 -22 -90 -27 0 -4 8 -6 18 -3 9 2 37 8 62 11 25 4 90 18 145
31 105 26 111 28 135 37 8 3 29 5 45 4 24 -2 30 -6 29 -25 -1 -26 14 -29 31
-5 17 23 94 27 102 6 3 -9 1 -24 -6 -34 -9 -16 -8 -19 6 -19 10 0 28 -3 41 -6
13 -4 22 -2 22 5 0 7 -5 9 -10 6 -11 -7 -9 23 3 43 5 6 5 12 1 12 -3 0 -1 7 6
16 8 8 9 14 4 12 -5 -2 -9 1 -9 7 0 5 4 9 8 7 4 -1 3 7 -3 18 -10 19 -6 25 14
21 6 -1 6 3 0 11 -13 19 -10 53 5 50 8 -1 10 2 4 10 -4 7 -7 22 -5 33 l2 20
-9 -20 c-5 -11 -6 -24 -3 -29 3 -5 0 -6 -6 -2 -7 4 -9 -3 -6 -21 3 -19 2 -24
-5 -14 -9 15 -9 25 4 54 4 10 2 23 -5 32 -10 12 -8 13 12 10 69 -14 211 -35
230 -34 13 0 -44 15 -127 34 -161 36 -260 61 -274 69 -5 3 -33 8 -62 12 -30 3
-58 10 -64 13 -5 4 -32 16 -60 26 -84 30 -206 97 -246 135 -152 144 90 254
491 222 72 -5 120 -5 127 1 9 6 23 6 40 -1 39 -15 79 -21 143 -23 213 -6 546
-84 761 -177 49 -21 69 -16 69 19 0 24 18 33 35 19 23 -19 119 -13 174 11 55
23 136 102 146 142 4 15 57 65 148 138 178 143 427 390 427 423 0 4 -11 -1
-25 -10 -16 -10 -48 -17 -89 -17 -54 -1 -71 3 -112 29 -59 36 -96 97 -98 160
l-1 45 -60 -63 c-100 -105 -224 -216 -342 -305 -62 -47 -113 -88 -113 -90 0
-2 4 -2 9 2 18 11 98 -17 133 -46 59 -48 84 -123 67 -199 -20 -90 -85 -148
-175 -157 -131 -14 -240 90 -228 216 2 23 9 51 14 60 5 11 -86 -30 -229 -102
-132 -66 -244 -118 -251 -115 -6 2 42 28 107 57 316 143 624 339 855 544 273
244 463 548 522 839 21 103 21 333 0 434 -46 226 -168 456 -353 666 -33 38
-61 72 -61 76 1 20 29 31 175 66 88 21 163 40 166 42 3 2 9 50 13 106 4 57 15
182 25 278 11 100 15 179 10 184 -6 6 -9 2 -10 -10 0 -10 -11 -111 -24 -224
-19 -174 -23 -193 -24 -126 -1 75 -8 100 -13 43 -1 -14 -6 -24 -10 -21 -4 2
-5 13 -3 24 2 11 -1 22 -6 26 -5 3 -9 2 -8 -3 4 -20 -2 -27 -12 -13 -9 13 -10
13 -6 0 2 -8 9 -14 14 -13 5 1 9 -7 9 -18 0 -18 -2 -17 -21 5 l-20 25 -10 -87
-10 -87 -89 -22 c-48 -12 -99 -24 -112 -27 l-24 -6 0 106 c0 106 -4 127 -14
69 -2 -17 -5 -32 -6 -35 -1 -3 -2 -9 -1 -14 1 -5 -4 -5 -11 1 -7 6 -21 9 -31
8 -13 -3 -15 0 -9 8 5 7 6 21 2 32 -9 23 -10 19 -35 -145 -8 -52 -24 -144 -35
-205 -10 -60 -22 -156 -26 -212 -11 -155 12 -189 112 -166 54 13 53 18 19
-133 -4 -19 -16 -23 -102 -33 -154 -19 -327 -49 -463 -81 -69 -15 -126 -27
-127 -26 -5 5 21 131 29 142 4 6 27 16 50 24 59 17 98 47 115 87 15 37 77 603
70 641 -2 12 0 25 4 28 5 3 9 13 8 22 0 14 -2 14 -6 2 -12 -33 -25 -41 -41
-28 -13 12 -14 10 -1 -9 9 -16 16 -19 21 -10 4 7 6 3 5 -11 -1 -14 -5 -18 -11
-12 -6 6 -17 4 -30 -8 -11 -9 -16 -11 -12 -4 4 6 2 12 -3 12 -6 0 -11 4 -11 9
0 6 9 8 20 6 12 -2 18 0 15 6 -4 5 -10 7 -15 4 -5 -3 -10 3 -12 12 -3 10 -14
-25 -27 -77 l-22 -95 -110 -26 c-60 -14 -111 -23 -113 -20 -2 3 1 37 6 74 10
76 6 105 -10 67 l-11 -25 -1 25 c0 14 -5 32 -10 40 -8 11 -9 8 -4 -12 9 -39
10 -205 1 -258 -4 -25 -9 -58 -11 -75 -9 -59 -58 -210 -88 -269 -75 -151 -185
-263 -321 -329 -95 -46 -172 -66 -283 -74 -199 -13 -326 69 -371 240 -17 65
-23 289 -9 357 7 33 5 32 -24 -18 -17 -29 -35 -50 -39 -47 -5 2 -8 -3 -7 -13
0 -9 -4 -16 -10 -15 -7 1 -11 -5 -10 -15 0 -9 -5 -16 -12 -14 -8 1 -11 -2 -8
-7 7 -11 -41 -71 -57 -71 -6 0 2 14 19 32 16 18 0 6 -35 -25 -35 -31 -98 -74
-140 -94 -42 -21 -78 -41 -79 -46 -2 -4 -8 -5 -13 -1 -12 7 -51 -5 -45 -15 3
-4 -5 -8 -17 -8 -17 -2 -19 0 -7 7 13 8 12 10 -2 10 -10 0 -18 -5 -18 -11 0
-5 -5 -7 -10 -4 -6 4 -28 4 -50 0 -37 -6 -39 -9 -45 -48 -13 -88 -10 -143 9
-172 17 -25 22 -27 66 -22 l47 6 -15 -72 c-8 -40 -16 -74 -18 -75 -1 -2 -74
-14 -161 -27 -87 -13 -218 -38 -292 -55 -73 -17 -135 -30 -136 -28 -4 4 22
138 26 141 2 2 22 15 45 29 22 14 48 42 58 62 21 44 66 448 70 627 l3 127 -41
-5 c-33 -4 -52 -17 -103 -66 -35 -34 -88 -97 -120 -142 -68 -96 -81 -111 -59
-68 10 20 12 34 6 38 -6 3 -10 14 -9 23 0 12 3 11 9 -5 12 -30 23 -30 15 0 -5
17 -4 19 4 7 6 -8 11 -10 12 -5 0 6 2 18 4 28 3 17 2 17 -14 3 -14 -13 -20
-13 -31 -3 -7 6 -10 7 -7 2 3 -6 2 -17 -3 -25 -5 -9 -4 -20 3 -30 6 -8 1 -6
-12 5 l-24 20 7 -20 c5 -14 4 -17 -4 -9 -6 6 -8 19 -4 28 5 14 9 15 16 4 7 -9
8 -8 4 6 -4 10 -1 26 6 34 11 13 11 14 -1 8 -7 -5 -42 -53 -77 -108 l-65 -98
20 -63 c35 -113 100 -286 117 -314 31 -50 66 -82 96 -89 28 -6 29 -8 23 -41
-3 -20 -12 -52 -18 -72 l-12 -36 -125 -33 c-69 -18 -149 -33 -177 -34 -85 -3
-96 13 -198 294 -69 189 -86 247 -82 274 3 20 34 74 74 130 37 53 68 104 68
113 0 9 6 15 13 13 8 -1 11 2 8 7 -4 5 12 36 34 68 31 44 38 59 26 61 -17 4
-68 -21 -83 -40 -14 -18 -25 -118 -12 -118 6 0 7 -5 4 -10 -4 -6 -10 -8 -14
-5 -5 2 -17 -5 -27 -17 -11 -12 -13 -18 -5 -13 10 6 12 4 7 -4 -5 -7 -10 -10
-14 -7 -3 3 -11 -2 -19 -12 -11 -15 -12 -15 -7 -1 3 10 0 20 -7 25 -7 4 -10 3
-5 -4 3 -6 2 -13 -3 -16 -5 -3 -8 8 -7 24 5 66 -13 9 -29 -95 -9 -60 -20 -130
-25 -155 -48 -286 -53 -335 -33 -374 13 -26 18 -28 54 -22 21 3 39 3 39 -1 -1
-20 -28 -135 -33 -140 -3 -3 -77 -16 -164 -28 -87 -13 -210 -35 -273 -49 -63
-13 -117 -23 -119 -21 -2 2 2 32 8 67 11 64 15 69 70 100 16 9 37 30 46 47 20
39 68 473 61 551 -3 30 -2 44 2 31 4 -13 7 20 7 78 l0 101 -25 0 c-14 0 -30
-4 -36 -8 -9 -6 -40 -130 -63 -257 l-9 -50 2 66 c2 47 0 66 -10 66 -6 0 -10
-7 -7 -14 3 -8 2 -13 -3 -12 -20 3 -34 -2 -34 -12 0 -6 5 -7 13 -2 18 11 38
13 31 2 -3 -5 -9 -7 -14 -4 -5 3 -11 1 -15 -5 -11 -18 -25 0 -26 33 -1 28 -2
27 -11 -13 l-9 -45 -137 -31 c-75 -18 -139 -30 -141 -28 -3 2 -5 37 -5 77 l-1
72 -31 3 c-22 2 -40 -5 -61 -22 -35 -30 -48 -57 -68 -146 -14 -61 -14 -62 -12
-19 2 37 -1 45 -12 41 -9 -3 -12 -1 -7 6 3 6 1 14 -5 18 -8 4 -9 3 -5 -5 4 -6
0 -14 -8 -17 -9 -3 -16 -12 -16 -19 0 -8 -4 -16 -8 -19 -5 -3 -7 14 -6 37 3
36 1 38 -7 18 -5 -13 -14 -83 -20 -154 -25 -298 9 -405 124 -383 69 13 96 50
126 169 l19 71 124 31 c68 18 128 30 134 28 8 -3 8 -15 -2 -42 -7 -20 -23
-105 -35 -187 -21 -143 -23 -150 -54 -179 -36 -33 -181 -94 -303 -127 -56 -16
-108 -22 -192 -22 -100 -1 -122 2 -165 22 -88 40 -143 108 -171 210 -12 41
-16 107 -18 234 0 98 2 170 6 160 5 -9 5 3 2 28 -3 25 -2 40 3 33 5 -7 8 3 8
25 0 55 51 183 104 265 104 158 268 269 476 323 86 22 128 27 302 31 186 5
203 7 208 24 4 11 10 19 14 19 26 0 392 65 516 91 83 18 164 33 180 34 66 3
172 17 184 25 8 5 -6 12 -40 20 -172 41 -526 184 -497 201 6 4 17 5 23 1 14
-9 35 -11 34 -4 -1 4 0 9 1 12 1 3 3 13 5 23 7 35 15 47 32 48 14 0 13 2 -5
10 -35 13 -27 54 10 54 l27 -1 -20 22 c-19 20 -8 18 81 -17 56 -22 104 -38
107 -36 2 3 -6 8 -19 12 -13 4 -78 34 -145 65 -92 44 -123 55 -127 44 -8 -20
-39 -5 -33 17 4 13 -9 23 -57 45 -33 15 -63 30 -66 33 -3 4 -33 28 -66 54 -34
25 -74 61 -89 79 -17 20 -35 32 -46 30 -17 -3 -17 -1 2 45 25 60 46 74 122 81
68 6 248 -14 292 -33 17 -7 107 -35 200 -63 94 -28 219 -71 279 -97 276 -118
506 -288 506 -376 0 -14 -13 -59 -30 -99 -16 -40 -30 -78 -30 -85 0 -13 146
11 370 60 267 59 438 27 536 -102 l32 -42 49 66 c88 120 219 208 388 259 77
23 109 27 220 28 125 1 132 0 195 -30 65 -31 118 -74 156 -128 l21 -29 12 112
c7 62 11 113 9 115 -105 70 -554 255 -803 330 -289 88 -721 174 -1055 211
-203 22 -237 27 -222 32 20 7 14 22 -7 18 -11 -2 -25 3 -31 11 -7 7 -16 12
-20 9 -4 -3 -15 6 -23 19 -11 16 -24 23 -40 21 -19 -2 -24 1 -23 21 1 12 6 27
10 31 5 4 6 3 2 -4 -3 -6 -2 -14 4 -18 6 -4 8 -11 5 -16 -4 -5 -1 -9 4 -9 6 0
11 6 11 13 0 8 4 7 10 -3 5 -8 10 -11 10 -6 0 5 6 3 13 -3 8 -6 17 -8 20 -4 4
3 7 1 7 -5 0 -7 -4 -12 -10 -12 -5 0 -10 -5 -10 -11 0 -8 6 -7 17 2 14 12 16
12 8 0 -6 -10 -4 -12 5 -6 9 6 11 4 5 -5 -5 -9 -4 -11 4 -6 6 4 9 12 6 17 -4
5 -1 9 5 9 7 0 9 -7 6 -16 -4 -10 -2 -13 6 -8 7 5 8 3 3 -6 -5 -8 -4 -11 3 -6
6 3 15 -2 21 -11 8 -14 11 -15 11 -3 1 10 4 9 10 -5 l9 -20 0 20 c1 16 3 17
10 6 5 -8 23 -15 39 -15 17 -1 28 2 26 6 -2 4 0 9 6 13 5 3 10 14 9 23 0 12
-3 10 -10 -6 -12 -30 -41 -25 -50 8 l-7 25 -1 -25 c-1 -20 -3 -22 -11 -10 -7
11 -10 11 -10 2 0 -7 -5 -10 -10 -7 -8 5 -7 12 2 23 11 13 11 14 -2 7 -24 -15
-42 -15 -36 0 3 9 -3 12 -20 10 -21 -2 -28 5 -25 27 0 4 -8 5 -18 3 -26 -5
-45 10 -38 30 4 9 3 14 -3 10 -6 -3 -10 -13 -10 -21 0 -8 -4 -13 -9 -9 -6 3
-8 14 -6 25 2 11 -1 22 -6 26 -5 3 -8 1 -7 -4 2 -6 -1 -9 -7 -8 -5 0 -9 9 -9
19 1 17 -10 14 -12 -4 -3 -22 -6 -23 -14 -4 -8 18 -9 18 -9 2 -1 -10 -5 -16
-9 -13 -4 2 -8 -4 -9 -14 -2 -21 -11 -34 -59 -86 -25 -27 -28 -34 -15 -37 9
-3 -30 -5 -86 -6 -87 -1 -101 -3 -97 -16 4 -10 0 -15 -11 -15 -11 0 -15 5 -11
15 4 13 -8 15 -82 15 -49 0 -81 4 -74 9 10 6 10 10 -2 21 -9 7 -13 16 -10 21
3 5 -2 9 -10 9 -9 0 -16 8 -16 19 0 11 -4 21 -9 23 -6 2 -13 19 -16 38 -3 19
-10 49 -14 67 -5 17 -8 33 -6 35 3 3 15 64 17 86 1 6 6 12 11 12 6 0 7 3 3 7
-3 4 4 13 16 20 21 11 19 12 -24 13 -26 0 -49 -4 -52 -9z m-268 -64 c4 -20
-25 -34 -40 -19 -15 15 -1 44 19 40 10 -2 19 -11 21 -21z m-170 -20 c2 -12 -3
-17 -17 -17 -15 0 -21 6 -21 21 0 25 33 22 38 -4z m86 -16 c3 -5 -1 -14 -8
-20 -16 -13 -32 2 -21 19 8 12 22 13 29 1z m324 -68 c-2 -10 -10 -18 -18 -18
-8 0 -16 8 -18 18 -2 12 3 17 18 17 15 0 20 -5 18 -17z m-1113 -31 c0 -18 -20
-15 -23 4 -3 10 1 15 10 12 7 -3 13 -10 13 -16z m615 -2 c0 -13 -7 -20 -20
-20 -13 0 -20 7 -20 20 0 13 7 20 20 20 13 0 20 -7 20 -20z m115 -5 c0 -23
-34 -33 -45 -14 -13 20 1 40 24 37 13 -2 21 -10 21 -23z m-667 -13 c2 -15 -2
-22 -12 -22 -9 0 -16 -8 -16 -19 0 -28 -19 -36 -38 -17 -14 14 -14 17 0 33 8
10 18 26 21 36 9 25 41 17 45 -11z m785 14 c7 -18 -1 -26 -25 -26 -18 0 -25
20 -11 33 11 12 31 8 36 -7z m-876 -16 c8 -12 9 -21 3 -25 -11 -7 -40 18 -40
34 0 18 24 12 37 -9z m1133 -25 c6 -8 9 -18 6 -23 -3 -6 3 -12 14 -15 23 -6
27 -35 5 -43 -8 -4 -15 -14 -15 -24 0 -23 -13 -32 -34 -24 -20 8 -21 43 -1 50
22 9 18 31 -5 37 -22 6 -28 42 -7 50 20 9 24 8 37 -8z m633 2 c-2 -4 -3 -15
-4 -24 0 -14 -2 -13 -9 5 -13 30 -21 28 -16 -4 3 -15 2 -24 -1 -20 -9 8 -13
38 -7 47 5 9 40 5 37 -4z m-1873 -18 c0 -7 8 -18 18 -25 16 -12 16 -14 0 -30
-11 -12 -21 -15 -27 -9 -8 9 -15 47 -12 68 2 12 21 8 21 -4z m1110 -34 c15
-18 6 -45 -13 -45 -8 0 -20 7 -27 15 -10 12 -10 18 0 30 16 19 24 19 40 0z
m-1015 -20 c0 -30 -39 -27 -43 3 -3 20 0 23 20 20 15 -2 23 -10 23 -23z m-247
-2 c-2 -10 -10 -18 -18 -18 -8 0 -16 8 -18 18 -2 12 3 17 18 17 15 0 20 -5 18
-17z m310 0 c2 -8 -5 -13 -17 -13 -12 0 -21 6 -21 16 0 18 31 15 38 -3z m697
-14 c8 -23 1 -34 -14 -24 -13 8 -15 45 -2 45 5 0 13 -9 16 -21z m1079 5 c3 -8
2 -12 -4 -9 -6 3 -10 10 -10 16 0 14 7 11 14 -7z m-2363 -27 c-5 -5 -17 -7
-26 -3 -14 5 -15 9 -5 21 10 12 16 13 27 4 9 -8 10 -16 4 -22z m384 4 c7 -12
-12 -24 -25 -16 -11 7 -4 25 10 25 5 0 11 -4 15 -9z m-322 -7 c11 -12 -13 -43
-28 -38 -22 9 -19 44 3 44 10 0 22 -3 25 -6z m203 -5 c10 -17 -13 -36 -27 -22
-12 12 -4 33 11 33 5 0 12 -5 16 -11z m317 -4 c4 -8 2 -17 -3 -20 -6 -4 -10
-14 -10 -25 0 -22 -25 -33 -38 -17 -12 16 13 77 32 77 8 0 16 -7 19 -15z
m1835 -1 c37 -6 19 -14 -29 -14 -51 0 -52 1 -29 14 14 7 30 10 35 7 6 -3 16
-6 23 -7z m-2103 -19 c0 -28 -29 -25 -33 3 -3 19 0 23 15 20 10 -2 18 -12 18
-23z m948 -5 c5 -20 -11 -30 -49 -30 -19 0 -24 5 -24 24 0 13 5 26 12 28 23 8
56 -4 61 -22z m175 7 c3 -13 -3 -17 -27 -17 -33 0 -39 8 -19 28 17 17 42 11
46 -11z m352 13 c0 -5 -7 -10 -15 -10 -8 0 -15 5 -15 10 0 6 7 10 15 10 8 0
15 -4 15 -10z m-1580 -13 c0 -19 -40 -41 -53 -28 -8 8 -5 15 9 26 24 18 44 19
44 2z m1277 -3 c-3 -3 -12 -4 -19 -1 -8 3 -5 6 6 6 11 1 17 -2 13 -5z m-774
-18 c7 -17 -19 -56 -37 -56 -8 0 -19 7 -26 15 -10 13 -10 19 5 35 21 23 50 26
58 6z m-469 -37 c-8 -14 -34 -11 -34 4 0 8 3 17 7 20 9 9 34 -13 27 -24z m363
12 c-3 -11 2 -29 10 -41 22 -31 10 -52 -24 -44 -37 9 -35 5 -22 58 7 29 17 46
26 46 10 0 14 -7 10 -19z m-97 0 c0 -5 9 -11 21 -14 24 -6 21 -30 -4 -35 -10
-2 -17 3 -17 12 0 9 -7 16 -15 16 -16 0 -20 12 -8 23 9 10 23 9 23 -2z m-875
-46 c0 -22 -31 -33 -47 -17 -17 17 -1 44 24 40 15 -2 23 -10 23 -23z m575 -25
c0 -11 -7 -20 -15 -20 -15 0 -21 21 -8 33 12 13 23 7 23 -13z m304 -8 c-1 -22
2 -23 35 -18 24 4 31 3 21 -3 -8 -5 -33 -12 -55 -15 l-40 -7 -3 36 c-2 33 0
36 20 33 17 -2 23 -9 22 -26z m186 8 c-20 -13 -33 -13 -25 0 3 6 14 10 23 10
15 0 15 -2 2 -10z m-297 -32 c11 -27 11 -34 1 -41 -18 -10 -66 36 -58 57 11
28 43 19 57 -16z m-130 -43 c1 -5 -6 -11 -15 -13 -11 -2 -18 3 -18 13 0 17 30
18 33 0z m57 -15 c-20 -13 -43 -13 -35 0 3 6 16 10 28 10 18 0 19 -2 7 -10z
m-782 -12 c-6 -18 -28 -21 -28 -4 0 9 7 16 16 16 9 0 14 -5 12 -12z m662 3 c0
-5 8 -11 18 -14 12 -3 10 -6 -11 -12 -30 -8 -54 5 -43 24 9 13 36 15 36 2z
m-45 -41 c-3 -5 -14 -10 -23 -10 -15 0 -15 2 -2 10 20 13 33 13 25 0z m-455
-170 c-8 -5 -19 -10 -25 -10 -5 0 -3 5 5 10 8 5 20 10 25 10 6 0 3 -5 -5 -10z
m1638 -74 c3 -16 0 -18 -22 -12 -24 6 -26 4 -20 -19 5 -21 3 -25 -14 -25 -18
0 -20 5 -17 38 1 20 3 38 4 38 1 1 16 1 33 0 23 -1 34 -7 36 -20z m2 -76 c0
-5 -4 -10 -10 -10 -5 0 -10 5 -10 10 0 6 5 10 10 10 6 0 10 -4 10 -10z m50
-39 c0 -4 -6 -8 -13 -8 -8 0 -14 6 -14 13 0 7 6 10 14 7 7 -3 13 -8 13 -12z
m225 -52 c-4 -12 -8 -28 -9 -35 -1 -8 -8 -20 -16 -27 -12 -10 -12 -9 -2 4 9
12 9 19 -1 29 -10 10 -9 11 2 5 11 -6 13 -3 9 13 -4 12 -2 20 3 16 5 -3 9 0 9
5 0 6 3 11 6 11 3 0 2 -10 -1 -21z m-1695 -714 c0 -6 14 -128 30 -270 17 -142
28 -260 25 -263 -3 -3 -5 6 -5 21 0 14 -4 28 -9 31 -5 4 -8 17 -7 29 2 14 -2
24 -10 24 -6 0 -10 -6 -7 -13 4 -12 -12 -27 -34 -30 -7 -1 -12 1 -12 4 3 21
-2 54 -7 49 -6 -6 -2 -52 27 -347 19 -183 34 -232 80 -255 l26 -14 -15 -68
c-8 -37 -16 -69 -17 -71 -1 -1 -71 -13 -156 -27 -85 -14 -211 -37 -282 -52
-70 -14 -129 -24 -131 -22 -3 3 0 37 6 77 11 70 12 72 47 83 75 23 81 32 81
109 0 60 -3 70 -17 70 -16 0 -16 2 -3 11 11 8 9 9 -10 4 -14 -4 -29 -11 -34
-16 -6 -5 -17 -9 -25 -8 -12 0 -10 3 4 9 16 8 14 9 -10 5 -16 -2 -34 -4 -38
-4 -5 -1 -6 -5 -3 -9 3 -5 -1 -9 -9 -9 -8 0 -12 4 -9 9 3 4 0 8 -5 8 -6 0 -11
-7 -11 -15 0 -9 -9 -15 -22 -14 -22 0 -22 1 -3 10 21 10 24 10 -56 -7 -22 -5
-28 -15 -42 -76 -16 -65 -16 -73 -2 -95 14 -20 21 -23 50 -17 19 3 35 2 35 -2
-1 -16 -28 -135 -32 -139 -2 -2 -78 -15 -169 -29 -91 -15 -198 -32 -238 -40
-72 -14 -73 -14 -67 8 3 11 8 41 12 65 5 32 17 54 48 85 37 37 50 64 125 273
46 130 80 237 75 244 -5 8 -3 10 6 4 10 -6 12 -3 8 13 -4 14 -2 20 4 16 6 -4
8 2 3 16 -5 14 -3 20 3 16 6 -4 8 2 4 16 -3 14 -1 19 6 14 7 -4 10 -2 7 6 -4
11 167 504 180 516 2 3 123 33 267 67 l263 62 38 -25 c20 -13 37 -30 37 -37z
m2537 8 c-3 -10 -5 -4 -5 12 0 17 2 24 5 18 2 -7 2 -21 0 -30z m-3362 -105
c-3 -13 -16 -79 -30 -147 -14 -69 -26 -125 -28 -126 -1 -2 -17 -10 -35 -19
-18 -9 -35 -23 -38 -31 -3 -8 -19 -89 -34 -182 -16 -92 -29 -149 -28 -126 2
31 -3 48 -20 66 -12 13 -19 27 -15 32 5 4 2 5 -5 1 -7 -4 -10 -11 -8 -15 3 -4
1 -13 -5 -21 -6 -11 -9 -5 -10 20 -1 23 -6 6 -15 -45 -7 -44 -21 -120 -30
-170 -21 -110 -19 -98 -44 -275 -11 -80 -29 -173 -41 -207 -53 -160 -196 -301
-408 -403 l-72 -34 -24 29 c-13 17 -24 34 -25 39 0 5 28 38 63 75 77 83 111
145 137 252 24 100 74 552 66 593 -4 16 -1 79 4 140 16 162 16 161 5 160 -5
-1 -22 -4 -37 -8 -23 -5 -29 -1 -50 35 l-25 41 22 106 21 106 229 42 c127 23
277 54 335 67 137 33 152 34 145 5z m4093 -69 c-9 -5 -24 -16 -32 -24 -17 -18
-157 -95 -171 -95 -5 0 22 18 61 38 40 21 89 52 110 69 22 17 41 29 44 26 3
-2 -3 -9 -12 -14z m-2431 -176 c-3 -10 -5 -2 -5 17 0 19 2 27 5 18 2 -10 2
-26 0 -35z m2086 30 c-7 -2 -19 -2 -25 0 -7 3 -2 5 12 5 14 0 19 -2 13 -5z
m-2269 -22 c3 -5 -1 -14 -8 -20 -12 -10 -14 -9 -11 6 2 10 4 19 4 21 2 5 10 2
15 -7z m404 -26 c-3 -3 -15 -8 -28 -10 -22 -4 -22 -4 -4 16 12 13 21 16 28 9
5 -5 7 -12 4 -15z m-420 -188 c2 -10 -3 -17 -12 -17 -18 0 -29 16 -21 31 9 14
29 6 33 -14z m-1684 -123 c3 -8 2 -12 -4 -9 -6 3 -10 10 -10 16 0 14 7 11 14
-7z m2996 -565 c97 -45 123 -160 55 -244 -21 -25 -23 -26 -18 -7 3 12 9 22 12
22 4 0 8 7 8 15 0 13 -4 12 -20 -2 -19 -18 -20 -17 -7 7 11 20 5 18 -32 -15
l-45 -40 24 -19 c83 -64 61 -201 -41 -261 -24 -14 -50 -25 -59 -25 -9 0 -14
-6 -11 -13 3 -8 -3 -13 -16 -13 -11 0 -20 3 -20 6 0 3 -87 7 -193 8 -105 2
-193 5 -195 6 -1 2 1 17 4 34 4 21 13 32 30 36 13 4 28 14 33 25 8 15 51 307
51 349 0 6 -6 12 -14 12 -35 0 -48 57 -26 114 7 20 14 21 226 21 179 0 225 -3
254 -16z m475 -16 c-3 -21 -9 -49 -12 -63 -6 -22 0 -20 46 22 34 31 71 53 104
63 61 18 202 20 309 3 88 -13 96 -23 72 -91 -16 -45 -45 -157 -49 -195 -2 -12
-14 -35 -28 -51 -19 -23 -28 -50 -37 -118 -7 -48 -13 -93 -15 -99 -6 -20 -106
-38 -210 -38 -137 0 -193 29 -230 118 -31 73 -19 250 21 329 16 30 15 31 -19
18 -20 -8 -26 -21 -37 -83 -9 -46 -16 -64 -18 -48 -2 14 -9 31 -15 38 -8 10
-16 -9 -33 -80 -36 -147 -38 -181 -17 -200 10 -8 23 -17 29 -19 7 -3 8 -15 2
-36 l-9 -33 -142 0 -143 0 4 35 c3 26 9 35 23 35 34 0 48 41 69 212 11 92 20
169 20 172 0 3 -9 6 -19 6 -29 0 -40 50 -25 107 6 21 12 23 128 26 66 1 147 4
180 5 l58 2 -7 -37z m2256 -87 c27 -65 49 -121 49 -124 0 -3 -10 3 -21 14
l-21 19 16 -39 c9 -21 16 -41 17 -45 2 -11 28 114 29 136 0 15 -7 23 -22 25
-18 2 -24 11 -26 37 -2 19 -1 49 2 66 l6 31 166 0 165 -1 -6 -44 c-9 -62 -22
-91 -39 -91 -21 0 -34 -27 -42 -91 -5 -38 -9 -48 -14 -34 -4 11 -6 22 -5 25 2
3 -3 11 -11 17 -11 11 -14 6 -19 -25 -4 -20 -10 -46 -15 -58 -4 -11 -18 -78
-30 -150 -12 -71 -25 -132 -29 -135 -3 -4 -43 -9 -87 -12 l-82 -6 -63 140
c-34 77 -68 144 -75 150 -8 7 -14 -10 -23 -66 -6 -42 -11 -87 -11 -100 0 -25
32 -51 50 -40 12 7 12 -1 4 -44 l-6 -31 -134 0 c-101 0 -134 3 -134 13 0 30
14 57 31 62 11 4 23 14 29 24 7 15 60 320 60 351 0 10 -58 19 -81 13 -13 -4
-21 -24 -31 -76 -7 -42 -14 -62 -16 -48 -2 13 -10 30 -17 37 -11 11 -15 4 -24
-39 -5 -28 -17 -83 -26 -122 -24 -103 -19 -125 33 -152 2 -1 1 -15 -3 -32 l-7
-31 -145 0 -145 0 6 23 c3 12 6 27 6 33 0 7 11 15 25 18 34 9 39 26 59 191 9
77 19 152 22 168 5 24 3 27 -21 27 -22 0 -30 -8 -51 -57 -42 -100 -43 -101
-37 -65 4 21 2 32 -6 32 -7 0 -9 5 -6 10 3 6 4 10 1 10 -8 0 -108 -211 -142
-298 -18 -49 -35 -77 -48 -82 -12 -4 -67 -10 -122 -13 l-102 -5 -4 119 c-2 66
-9 124 -14 129 -6 6 -23 -29 -49 -103 -21 -61 -42 -117 -47 -123 -4 -6 -41
-12 -80 -13 -40 -1 -92 -4 -115 -7 -24 -3 -43 -2 -43 3 0 4 -11 107 -23 229
-20 191 -26 223 -44 241 -20 20 -22 39 -9 100 l6 28 771 0 771 -1 49 -118z
m-2361 -237 c0 -18 -2 -19 -15 -9 -15 12 -12 30 6 30 5 0 9 -10 9 -21z m-1684
-185 c36 -26 122 -139 153 -201 26 -51 26 -52 3 -46 -10 2 -24 -3 -32 -12 -12
-14 -15 -14 -33 2 -14 13 -10 -1 17 -54 67 -134 66 -204 -1 -170 -85 44 -248
302 -260 411 -5 41 -4 43 42 73 51 33 62 33 111 -3z m1704 -14 c0 -5 -5 -10
-11 -10 -5 0 -7 5 -4 10 3 6 8 10 11 10 2 0 4 -4 4 -10z m2440 -565 c0 -8 -7
-15 -15 -15 -8 0 -15 7 -15 15 0 8 7 15 15 15 8 0 15 -7 15 -15z m350 -15 c0
-5 -7 -10 -16 -10 -9 0 -12 -5 -8 -12 4 -7 3 -8 -4 -4 -7 4 -12 2 -12 -4 0 -6
-4 -8 -10 -5 -5 3 -10 2 -10 -3 0 -5 -12 -12 -26 -15 -29 -5 -25 0 31 37 43
28 55 32 55 16z m-1920 -165 c16 -20 5 -45 -20 -45 -16 0 -20 7 -20 30 0 33
19 40 40 15z m260 -190 c0 -8 -7 -15 -15 -15 -8 0 -15 7 -15 15 0 8 7 15 15
15 8 0 15 -7 15 -15z m-280 -9 c0 -8 -5 -18 -11 -22 -14 -8 -33 11 -25 25 10
16 36 13 36 -3z m125 -31 c0 -21 -31 -33 -46 -18 -5 5 -7 17 -3 27 9 24 49 17
49 -9z m311 14 c10 -17 -13 -36 -27 -22 -12 12 -4 33 11 33 5 0 12 -5 16 -11z
m-306 -104 c0 -8 -7 -15 -15 -15 -16 0 -20 12 -8 23 11 12 23 8 23 -8z m140
-25 c0 -5 -5 -10 -11 -10 -5 0 -7 5 -4 10 3 6 8 10 11 10 2 0 4 -4 4 -10z
m358 -31 c-6 -4 -7 -12 -3 -18 4 -7 2 -18 -5 -26 -7 -8 -7 -15 -1 -19 8 -5 8
-34 1 -43 -2 -3 -5 -12 -9 -29 0 -3 -6 -2 -11 1 -7 4 -7 12 -2 18 11 15 9 68
-3 87 -8 13 -6 13 8 2 15 -13 16 -10 12 22 -4 31 -3 35 9 24 9 -8 10 -15 4
-19z m-301 -55 c3 -8 1 -20 -4 -25 -11 -11 -45 -1 -38 12 3 4 13 5 23 2 15 -6
15 -5 3 10 -9 12 -10 17 -2 17 6 0 14 -7 18 -16z"/>
<path d="M2737 4446 c-3 -8 -2 -18 3 -21 13 -8 20 9 11 24 -6 10 -10 9 -14 -3z"/>
<path d="M2340 4375 c-1 -16 -2 -33 -1 -37 0 -5 -5 -7 -11 -5 -7 1 -12 -4 -10
-11 1 -8 -2 -11 -8 -7 -6 3 -8 11 -5 16 4 5 2 9 -4 9 -5 0 -12 -6 -14 -12 -3
-7 -6 1 -7 17 -1 22 -12 0 -39 -80 -21 -60 -38 -111 -37 -112 0 -1 37 5 82 14
l81 15 -5 71 c-2 40 -8 90 -12 112 -7 37 -8 38 -10 10z"/>
<path d="M2313 4359 c-2 -23 3 -25 10 -4 4 8 3 16 -1 19 -4 3 -9 -4 -9 -15z"/>
<path d="M1710 4252 c0 -4 6 -16 13 -26 10 -14 14 -15 14 -4 0 7 -6 19 -14 26
-7 7 -13 9 -13 4z"/>
<path d="M1282 4145 c0 -16 2 -22 5 -12 2 9 2 23 0 30 -3 6 -5 -1 -5 -18z"/>
<path d="M4494 3463 c-8 -34 -10 -36 -26 -20 -14 14 -17 15 -22 1 -6 -16 4
-22 43 -26 18 -2 29 5 43 29 21 35 17 53 -11 53 -12 0 -20 -12 -27 -37z"/>
<path d="M4406 3279 c-16 -82 -1 -109 62 -109 37 0 62 28 62 68 0 44 -30 72
-79 72 -35 0 -39 -3 -45 -31z"/>
<path d="M5406 3487 c-10 -7 -24 -36 -32 -63 -9 -30 -13 -37 -11 -19 2 24 -1
31 -15 31 -30 0 -50 -142 -28 -200 13 -34 54 -60 84 -52 19 5 27 15 32 43 8
42 -5 68 -32 68 -21 0 -22 4 -11 58 l8 37 67 0 c37 0 91 3 120 6 47 6 52 9 52
32 0 25 -1 25 -15 6 -15 -18 -15 -18 -8 0 4 12 3 17 -4 13 -6 -4 -34 -7 -63
-8 -28 -1 -58 -8 -65 -16 -12 -11 -14 -6 -17 29 -2 34 -7 44 -23 46 -11 1 -28
-3 -39 -11z"/>
<path d="M6112 3518 c-7 -7 -13 -37 -13 -67 -1 -31 -4 -46 -6 -33 -2 12 -8 22
-13 22 -5 0 -10 8 -13 18 -2 9 -7 -35 -11 -100 -8 -111 -5 -138 13 -138 5 0
18 24 30 53 21 53 81 239 81 251 0 11 -56 6 -68 -6z"/>
<path d="M6457 3523 c-4 -3 -7 -36 -8 -72 0 -44 -3 -59 -8 -46 -5 11 -7 22 -6
25 2 3 -3 10 -10 17 -10 9 -14 -4 -19 -64 -9 -108 -8 -151 5 -158 6 -4 13 -5
16 -1 6 5 102 286 103 299 0 9 -64 10 -73 0z"/>
<path d="M5850 6643 c0 -5 33 -8 74 -8 41 0 69 3 63 7 -16 10 -137 10 -137 1z"/>
<path d="M3815 6620 c-3 -5 -1 -10 4 -10 6 0 11 5 11 10 0 6 -2 10 -4 10 -3 0
-8 -4 -11 -10z"/>
<path d="M6073 6585 c0 -8 4 -12 8 -9 4 2 9 -2 12 -8 2 -7 7 -10 11 -7 3 3 -2
13 -12 22 -15 14 -19 15 -19 2z"/>
<path d="M3509 6573 c-13 -16 -12 -17 4 -4 9 7 17 15 17 17 0 8 -8 3 -21 -13z"/>
<path d="M8578 6483 c7 -3 16 -2 19 1 4 3 -2 6 -13 5 -11 0 -14 -3 -6 -6z"/>
<path d="M8417 6444 c-60 -20 -107 -38 -104 -40 2 -2 24 3 48 12 24 8 80 26
124 39 44 13 71 24 60 24 -11 0 -69 -16 -128 -35z"/>
<path d="M9035 6456 c15 -22 14 -26 -12 -57 l-27 -34 32 29 c34 31 40 54 20
74 -21 21 -29 13 -13 -12z"/>
<path d="M3591 6404 c0 -11 3 -14 6 -6 3 7 2 16 -1 19 -3 4 -6 -2 -5 -13z"/>
<path d="M6915 6395 c-5 -2 -27 -6 -47 -10 -77 -12 -31 -31 100 -41 82 -7 82
-7 76 -15 -2 -4 5 -10 16 -14 11 -3 20 -11 20 -16 0 -6 5 -7 10 -4 6 3 13 -1
16 -10 6 -14 72 -55 89 -55 3 0 -1 13 -9 28 -19 37 -90 100 -130 117 -33 13
-124 27 -141 20z"/>
<path d="M2573 6380 c-13 -5 -23 -14 -23 -20 0 -7 7 -7 22 1 12 6 33 15 47 20
l26 7 -25 1 c-14 0 -35 -4 -47 -9z"/>
<path d="M2678 6383 c12 -2 30 -2 40 0 9 3 -1 5 -23 4 -22 0 -30 -2 -17 -4z"/>
<path d="M3803 6345 c-3 -9 -3 -18 -1 -21 3 -3 8 4 11 16 6 23 -1 27 -10 5z"/>
<path d="M3600 6331 c0 -6 4 -13 10 -16 6 -3 7 1 4 9 -7 18 -14 21 -14 7z"/>
<path d="M2463 6308 c-29 -33 -34 -45 -18 -45 8 0 12 4 10 7 -3 4 5 19 16 34
25 32 20 34 -8 4z"/>
<path d="M3760 6289 c0 -5 5 -7 10 -4 6 3 10 8 10 11 0 2 -4 4 -10 4 -5 0 -10
-5 -10 -11z"/>
<path d="M3665 6270 c3 -5 8 -10 11 -10 2 0 4 5 4 10 0 6 -5 10 -11 10 -5 0
-7 -4 -4 -10z"/>
<path d="M3846 6235 c-3 -8 -1 -15 3 -15 5 0 11 7 15 15 3 8 1 15 -3 15 -5 0
-11 -7 -15 -15z"/>
<path d="M2613 6228 c-13 -6 -23 -19 -23 -30 0 -17 1 -17 20 2 30 30 92 25
125 -10 35 -36 39 -81 11 -122 -37 -56 -104 -63 -147 -15 -11 12 -26 29 -34
38 -21 22 -19 38 8 59 l22 19 -23 -6 c-50 -12 -30 -106 30 -143 56 -34 121
-22 160 30 37 50 30 116 -17 160 -28 26 -98 36 -132 18z"/>
<path d="M1596 6171 c-38 -79 -32 -100 55 -182 l69 -66 -21 -19 c-11 -10 -26
-28 -31 -39 -6 -11 5 -3 23 18 l34 38 33 -17 c39 -19 42 -15 -68 -86 -137 -88
-285 -211 -432 -358 -127 -127 -166 -176 -120 -151 31 17 124 2 172 -27 52
-32 103 -108 104 -156 1 -33 1 -33 123 84 67 65 183 164 258 220 75 56 134
105 131 108 -3 3 -12 0 -19 -6 -33 -28 -177 38 -163 75 3 8 1 11 -4 8 -16 -10
-40 60 -39 112 l2 48 7 -58 c10 -74 21 -87 13 -15 -6 62 9 101 59 150 24 24
32 27 44 17 12 -10 15 -10 12 2 -2 8 -7 17 -13 21 -6 5 -5 8 3 8 8 0 10 5 6
13 -5 7 0 6 11 -3 17 -14 18 -14 6 8 -6 12 -8 22 -4 21 4 -1 15 -1 23 1 11 1
9 4 -5 10 l-20 9 20 0 c17 1 17 3 5 11 -25 16 21 12 50 -5 14 -8 29 -14 34
-15 5 0 -42 32 -105 71 -121 75 -194 137 -213 182 l-12 27 -28 -59z m132 -366
c-6 -14 -13 -23 -15 -21 -5 5 15 46 22 46 3 0 -1 -11 -7 -25z m-248 -291 c0
-8 -4 -12 -10 -9 -5 3 -10 10 -10 16 0 5 5 9 10 9 6 0 10 -7 10 -16z m-75
-129 c0 -22 -31 -33 -47 -17 -17 17 -1 44 24 40 15 -2 23 -10 23 -23z"/>
<path d="M1890 6227 c8 -8 100 -47 100 -42 0 3 -12 11 -27 18 -32 17 -81 32
-73 24z"/>
<path d="M8090 6208 c2 -30 43 -155 55 -168 36 -39 215 -52 365 -26 41 8 69
14 62 15 -7 0 -20 8 -28 16 -14 13 -13 15 3 15 13 0 15 2 5 9 -8 4 -11 19 -8
35 3 15 1 24 -5 21 -5 -4 -7 -10 -4 -15 3 -5 1 -11 -4 -15 -10 -6 -7 27 4 45
3 6 0 10 -7 10 -9 0 -9 3 2 10 12 8 12 10 -5 11 -11 0 8 8 43 16 35 8 62 17
60 19 -3 2 -67 -6 -144 -17 -169 -25 -326 -23 -367 4 -15 10 -27 16 -27 15z"/>
<path d="M2040 6160 c8 -5 20 -10 25 -10 6 0 3 5 -5 10 -8 5 -19 10 -25 10 -5
0 -3 -5 5 -10z"/>
<path d="M7680 5997 c0 -4 18 -16 41 -28 23 -11 38 -16 35 -11 -3 6 5 5 19 -1
14 -7 25 -17 25 -24 0 -7 6 -10 14 -7 8 3 17 0 22 -7 5 -8 3 -10 -6 -4 -9 5
-11 4 -6 -4 4 -6 11 -9 16 -6 5 3 27 -12 50 -35 37 -37 70 -52 70 -31 0 26
-71 98 -120 124 -50 25 -160 48 -160 34z"/>
<path d="M2346 5908 c5 -23 2 -30 -17 -37 -16 -6 -18 -10 -8 -10 28 -1 44 26
31 52 -11 21 -11 20 -6 -5z"/>
<path d="M1646 5824 c-5 -14 -4 -15 9 -4 17 14 19 20 6 20 -5 0 -12 -7 -15
-16z"/>
<path d="M1833 5820 c-64 -39 -68 -136 -7 -189 68 -60 168 -30 195 58 13 44 2
75 -31 84 -18 5 -19 3 -6 -15 15 -21 13 -57 -5 -90 -12 -23 -66 -48 -88 -41
-56 17 -81 48 -81 98 0 30 44 83 73 87 l22 3 -21 12 c-17 10 -26 8 -51 -7z"/>
<path d="M2083 5718 c1 -44 -6 -68 -28 -93 -14 -15 -22 -25 -18 -23 19 8 149
78 162 86 10 7 -1 14 -42 26 -66 19 -75 20 -74 4z"/>
<path d="M5243 5702 c59 -73 41 -118 -54 -132 l-54 -8 43 -1 c54 -1 108 21
117 48 7 24 -20 75 -57 107 -17 15 -16 12 5 -14z"/>
<path d="M8077 5476 c-15 -22 -15 -24 0 -22 9 2 17 12 18 24 2 28 1 27 -18 -2z"/>
<path d="M1075 5346 c-58 -28 -118 -86 -139 -137 -16 -39 -32 -139 -22 -139 3
0 17 23 32 51 14 28 19 47 12 43 -10 -6 -11 -5 -1 8 7 8 10 17 7 21 -12 11 8
47 26 47 11 0 30 11 44 25 14 14 22 25 18 25 -4 0 7 8 23 19 34 20 73 61 59
61 -5 0 -31 -11 -59 -24z"/>
<path d="M8481 5357 c14 -12 69 -34 69 -28 0 9 -45 31 -62 31 -6 0 -9 -2 -7
-3z"/>
<path d="M6774 5243 c-13 -14 -31 -47 -39 -72 -14 -42 -15 -43 -12 -11 2 19 7
44 11 55 5 15 4 14 -5 -2 -11 -21 -13 -22 -26 -5 -13 15 -13 15 -4 -4 8 -17 6
-25 -11 -40 -13 -12 -18 -13 -13 -4 13 21 15 40 4 40 -5 0 -9 -6 -9 -14 0 -8
-4 -17 -8 -20 -5 -3 -7 9 -5 27 3 31 3 31 -8 7 -23 -53 -50 -245 -51 -369 -2
-140 10 -200 47 -237 47 -47 131 -21 173 54 44 79 54 144 58 372 2 125 -1 202
-5 185 l-9 -30 -1 28 c-3 68 -43 87 -87 40z m-57 -145 c-3 -8 -6 -5 -6 6 -1
11 2 17 5 13 3 -3 4 -12 1 -19z"/>
<path d="M6861 5254 c0 -11 3 -14 6 -6 3 7 2 16 -1 19 -3 4 -6 -2 -5 -13z"/>
<path d="M8647 5233 c3 -10 10 -24 16 -30 5 -7 13 -36 17 -65 7 -50 8 -51 9
-13 0 22 -8 59 -19 83 -19 41 -35 59 -23 25z"/>
<path d="M5786 5102 c-2 -4 -10 -45 -18 -92 -10 -69 -14 -79 -18 -51 -3 23
-11 35 -23 37 -14 2 -17 -2 -12 -14 5 -13 3 -14 -6 -5 -6 6 -9 20 -5 30 6 15
8 15 16 3 7 -11 9 -10 7 7 -1 15 -5 19 -13 13 -6 -6 -14 -6 -18 -2 -4 4 -7 3
-6 -3 4 -20 -1 -30 -9 -17 -5 9 -14 -25 -25 -92 -9 -57 -16 -109 -16 -114 0
-5 23 -10 52 -11 62 -1 106 28 140 92 29 54 29 194 1 214 -19 15 -40 17 -47 5z"/>
<path d="M917 5033 c-83 -139 -144 -280 -127 -297 8 -8 9 -6 4 9 -7 18 -6 18
9 6 9 -7 14 -18 10 -25 -3 -6 -2 -7 3 -3 5 5 10 13 10 18 3 22 5 23 14 9 6
-10 3 -22 -13 -40 l-22 -25 26 23 c21 19 28 20 37 9 9 -10 8 -17 -1 -28 -6 -7
0 -3 16 10 30 27 36 19 10 -13 -18 -21 -18 -21 5 -2 21 18 31 11 15 -10 -5 -5
-1 -2 8 8 23 24 33 9 12 -16 -14 -15 -14 -18 -2 -8 19 14 33 4 18 -14 -7 -8
-6 -14 2 -20 7 -4 9 -3 5 4 -3 6 -2 13 4 17 6 4 8 10 5 15 -3 5 -1 11 4 14 5
3 11 -1 15 -9 3 -8 1 -17 -5 -21 -6 -4 -6 -11 2 -20 10 -13 14 -12 29 1 15 14
18 14 30 0 7 -8 9 -15 5 -15 -4 0 -2 -6 4 -13 6 -8 7 -18 3 -23 -4 -5 5 2 21
15 29 26 35 37 15 25 -7 -4 -10 -4 -6 1 10 11 -12 36 -24 29 -7 -4 -7 0 0 12
5 11 8 27 7 36 -2 10 0 20 5 23 4 3 6 -12 4 -33 -3 -34 -2 -36 11 -18 13 17
17 14 14 -10 0 -4 5 -11 13 -15 10 -7 10 -9 0 -9 -7 0 -11 -4 -8 -9 3 -5 -4
-22 -16 -37 -16 -20 -17 -25 -5 -15 17 13 18 12 12 -15 -5 -26 -5 -27 5 -6 5
13 8 28 4 33 -3 5 0 9 5 9 6 0 11 6 11 14 0 8 29 71 64 141 36 70 57 120 48
112 -9 -8 -27 -13 -40 -11 -16 3 -21 0 -16 -8 5 -7 3 -8 -7 -2 -14 9 -29 13
-61 16 -10 1 -18 6 -18 10 0 4 -6 8 -12 8 -7 0 -35 21 -63 46 -27 26 -43 43
-35 39 13 -6 13 -5 0 7 -19 17 -24 34 -25 86 0 23 -1 42 -2 42 -1 0 -17 -26
-36 -57z m-70 -214 c-1 -4 3 -6 8 -5 6 0 9 6 7 11 -2 6 0 6 4 2 11 -11 14 -38
3 -31 -11 6 -11 2 -2 -21 5 -15 8 -14 20 6 l14 24 -7 -25 c-6 -22 -5 -23 9
-11 9 7 15 17 12 21 -3 5 -1 11 4 15 6 3 8 -3 6 -12 -3 -20 39 -76 49 -66 3 4
-4 18 -16 32 -13 14 -16 20 -7 13 9 -6 20 -8 24 -4 5 4 5 2 2 -4 -4 -6 2 -19
13 -29 18 -17 25 -14 21 8 -1 5 3 5 9 2 8 -5 6 -13 -4 -24 -9 -10 -13 -21 -10
-24 4 -4 13 1 21 11 13 16 14 16 5 -2 -5 -10 -7 -28 -4 -40 6 -19 7 -18 13 9
8 29 8 29 6 -5 -1 -25 2 -35 13 -35 8 0 15 -8 15 -17 0 -17 -14 -26 -16 -10 0
4 -8 15 -16 25 -15 15 -18 16 -33 2 -18 -16 -34 -10 -22 9 17 28 -3 53 -27 33
-8 -7 -12 -7 -9 -2 4 6 0 19 -8 30 -10 13 -14 15 -14 4 -1 -10 -4 -9 -11 4 -8
14 -14 15 -24 7 -10 -8 -18 -4 -34 16 -12 15 -21 31 -21 37 0 6 -6 3 -13 -8
-18 -24 -30 -5 -18 27 9 21 10 21 11 3 0 -16 2 -17 10 -5 5 9 5 19 0 25 -7 8
-5 12 5 12 7 0 13 -4 12 -8z"/>
<path d="M840 4795 c0 -5 9 -25 21 -44 15 -25 23 -31 31 -23 8 8 15 9 25 1 10
-9 13 -8 13 2 1 8 7 3 15 -11 7 -14 15 -23 17 -21 2 2 14 -1 26 -8 16 -9 22
-19 19 -32 -3 -10 -1 -17 4 -13 16 9 10 32 -13 48 -12 9 -17 16 -10 16 7 0 10
5 6 12 -5 8 -11 6 -20 -6 -11 -16 -13 -16 -18 2 -4 11 -15 27 -26 37 -18 17
-20 17 -26 1 -5 -14 -9 -15 -15 -4 -7 10 -9 10 -9 -2 -1 -8 -9 1 -20 20 -11
19 -19 31 -20 25z"/>
<path d="M5862 5045 c0 -16 2 -22 5 -12 2 9 2 23 0 30 -3 6 -5 -1 -5 -18z"/>
<path d="M5743 5024 c-3 -8 -2 -19 3 -24 5 -5 9 1 9 16 0 28 -3 30 -12 8z"/>
<path d="M4525 4800 c-4 -6 -11 -8 -16 -5 -5 3 -6 -1 -3 -10 4 -9 7 -15 8 -13
1 2 8 11 15 21 7 9 11 17 8 17 -3 0 -9 -5 -12 -10z"/>
<path d="M1085 4651 c-3 -5 -2 -12 3 -15 5 -3 9 1 9 9 0 17 -3 19 -12 6z"/>
<path d="M1016 4611 c-3 -5 2 -15 12 -22 15 -12 16 -12 5 2 -7 9 -10 19 -6 22
3 4 4 7 0 7 -3 0 -8 -4 -11 -9z"/>
<path d="M1076 4517 c3 -10 9 -15 12 -12 3 3 0 11 -7 18 -10 9 -11 8 -5 -6z"/>
<path d="M8527 4490 c15 -81 31 -134 32 -109 1 14 7 31 14 39 10 12 9 12 -5 1
-16 -12 -18 -11 -18 8 0 12 4 20 8 17 5 -3 9 1 9 9 0 11 -4 12 -14 4 -10 -9
-13 -6 -13 12 0 13 -5 31 -10 39 -7 11 -8 5 -3 -20z"/>
<path d="M8930 4456 c0 -4 16 -24 35 -43 19 -19 35 -40 35 -46 0 -7 -14 4 -29
23 -16 19 -32 33 -35 30 -2 -3 2 -41 11 -85 21 -110 23 -177 8 -222 -7 -21
-15 -60 -18 -86 -5 -51 -17 -77 -17 -38 0 23 -1 23 -26 6 -57 -37 -164 -41
-234 -9 -54 25 -100 67 -101 93 0 9 -9 -26 -20 -78 -33 -155 -90 -298 -179
-449 -28 -48 -29 -52 -9 -42 13 7 48 10 85 8 112 -7 180 -77 193 -196 l6 -57
22 28 c18 24 22 25 26 10 3 -11 5 -7 6 10 0 16 28 79 60 140 69 131 124 273
153 399 19 83 25 94 70 139 67 67 92 125 91 214 0 89 -28 156 -89 216 -24 24
-44 40 -44 35z m103 -147 c2 -8 5 -18 8 -24 3 -5 6 -30 7 -55 1 -44 1 -43 -13
17 -7 34 -19 72 -25 85 -11 21 -11 22 5 7 9 -9 17 -22 18 -30z m-30 -254 c-3
-9 -8 -14 -10 -11 -3 3 -2 9 2 15 9 16 15 13 8 -4z"/>
<path d="M640 4413 c-54 -61 -75 -118 -75 -203 0 -62 5 -85 27 -130 29 -58
105 -143 95 -105 -6 23 -15 66 -21 110 -16 103 -16 144 -1 246 9 61 14 113 12
115 -2 3 -19 -12 -37 -33z"/>
<path d="M690 3936 c0 -24 25 -121 57 -221 42 -132 163 -370 226 -447 15 -18
3 8 -27 57 -119 199 -180 341 -227 520 -15 61 -28 102 -29 91z"/>
<path d="M8350 3403 c-108 -99 12 -259 136 -182 38 23 63 85 48 119 -7 16 -9
11 -10 -25 -1 -54 -31 -92 -80 -101 -41 -8 -66 0 -98 33 -20 20 -26 36 -26 71
0 38 5 49 36 78 42 41 37 46 -6 7z"/>
<path d="M8440 3426 c0 -2 7 -7 16 -10 8 -3 12 -2 9 4 -6 10 -25 14 -25 6z"/>
<path d="M8495 3390 c10 -11 20 -20 23 -20 3 0 -3 9 -13 20 -10 11 -20 20 -23
20 -3 0 3 -9 13 -20z"/>
<path d="M8595 3123 c-27 -25 -41 -41 -30 -35 19 10 94 83 84 82 -2 -1 -26
-21 -54 -47z"/>
<path d="M1200 2992 c0 -16 213 -208 331 -299 77 -59 107 -89 125 -125 13 -27
28 -48 32 -48 5 0 12 12 18 27 9 27 6 30 -86 97 -115 83 -238 186 -342 285
-43 40 -78 69 -78 63z"/>
<path d="M8 2640 c5 -36 20 -49 69 -61 45 -11 152 -1 132 12 -8 5 -10 9 -6 9
4 0 4 8 -2 18 -7 13 -5 20 12 29 18 9 5 11 -68 10 -50 -1 -102 1 -116 5 -24 7
-25 6 -21 -22z"/>
<path d="M1844 2588 c-83 -99 -66 -236 38 -309 29 -20 27 -16 -14 28 -79 85
-86 169 -23 263 39 58 39 64 -1 18z"/>
<path d="M6162 2467 c-28 -29 -28 -58 -1 -88 l21 -24 -16 25 c-22 34 -20 59 6
87 12 13 19 23 16 23 -2 0 -14 -10 -26 -23z"/>
<path d="M2717 2376 c-23 -57 -94 -126 -169 -166 -34 -18 -58 -28 -54 -22 4 6
-25 0 -63 -13 -38 -13 -102 -28 -142 -34 -96 -15 -102 -24 -13 -19 l72 3 -3
-74 -2 -73 40 6 c60 10 167 54 209 87 20 16 40 29 45 29 4 0 35 -11 68 -24 57
-24 58 -29 10 -39 -17 -4 -17 -5 3 -6 13 0 32 4 42 9 15 8 51 1 151 -30 73
-22 137 -39 143 -36 14 5 19 3 -204 71 -102 31 -189 61 -194 65 -5 5 4 23 21
43 46 53 64 111 61 195 l-3 72 -18 -44z m-352 -330 c0 -25 -3 -47 -6 -50 -4
-4 -4 82 0 92 5 10 7 -5 6 -42z"/>
<path d="M7480 2337 c0 -2 18 -16 40 -31 44 -29 74 -77 65 -105 -9 -29 -41
-53 -97 -72 -29 -10 -45 -18 -36 -19 31 0 112 31 136 53 33 30 29 70 -11 109
-31 31 -97 75 -97 65z"/>
<path d="M5605 2175 c-49 -7 -110 -14 -134 -14 -35 -1 -42 -4 -33 -13 17 -17
15 -35 -5 -42 -18 -7 -47 20 -37 35 3 5 -11 9 -30 9 -20 0 -36 -5 -36 -11 0
-5 6 -7 13 -4 6 4 3 -1 -7 -9 -11 -9 -16 -16 -12 -16 5 0 3 -7 -4 -15 -7 -8
-16 -12 -21 -10 -4 3 -7 -4 -6 -15 1 -23 17 -28 17 -5 0 9 7 18 15 21 8 4 15
12 15 19 0 18 30 27 46 14 18 -15 18 -38 -1 -45 -9 -4 -15 -17 -14 -33 1 -18
3 -20 6 -8 6 23 33 51 57 60 12 5 16 3 13 -5 -2 -7 -10 -12 -17 -10 -11 3 -11
0 0 -12 14 -17 25 -22 15 -7 -3 5 -1 12 5 16 5 3 10 1 10 -4 0 -23 2 -27 19
-46 34 -38 34 -45 1 -41 -17 2 -28 1 -25 -2 2 -3 -1 -12 -7 -21 -10 -13 -10
-14 2 -3 35 31 86 3 78 -43 -3 -14 -1 -22 4 -19 6 4 8 19 6 35 -3 20 0 29 9
29 20 0 25 22 14 53 -7 18 -16 25 -29 22 -11 -2 -19 2 -19 11 0 16 13 19 20 4
3 -6 4 -5 3 2 -2 7 -10 12 -19 12 -9 -1 -14 3 -10 9 4 6 1 7 -7 2 -9 -5 -11
-4 -6 4 4 6 12 9 17 5 18 -11 61 -15 55 -5 -4 5 -2 12 3 16 6 3 8 -3 6 -15 -2
-11 0 -22 6 -25 8 -6 13 8 10 28 -1 5 3 6 9 2 7 -4 7 -12 0 -25 -7 -13 -7 -21
0 -25 5 -3 10 2 11 12 0 16 1 16 9 -2 12 -27 12 -43 0 -25 -9 13 -10 13 -10 0
0 -13 -1 -13 -10 0 -8 13 -10 13 -10 1 0 -11 -4 -10 -16 5 -14 16 -14 15 0 -9
9 -15 14 -32 11 -37 -3 -5 -1 -12 5 -15 6 -4 10 -3 9 2 -3 20 2 34 10 28 6 -3
8 -14 6 -25 -2 -12 0 -18 6 -15 5 4 9 1 9 -6 0 -6 -8 -9 -17 -7 -14 4 -18 -2
-20 -23 -1 -16 3 -31 8 -35 8 -4 7 -9 -1 -14 -8 -5 -8 -9 3 -13 15 -6 16 4 3
35 -9 21 0 38 20 38 8 0 14 7 14 15 0 9 7 18 15 22 13 5 13 8 -5 20 -15 11
-18 18 -11 32 7 12 6 22 -2 31 -10 10 -9 11 2 5 11 -6 13 -4 8 8 -4 10 -1 17
6 17 7 0 4 7 -7 15 -11 8 -16 21 -13 30 9 21 44 19 51 -2 3 -10 4 -6 2 9 -2
22 3 30 28 42 29 15 30 15 6 15 -14 -1 -65 -7 -115 -14z m-48 -41 c3 -8 -1
-22 -9 -30 -12 -12 -17 -12 -33 -1 -23 17 -14 47 15 47 11 0 23 -7 27 -16z
m-82 -26 c-4 -27 -4 -29 5 -13 9 20 10 20 7 -1 -1 -11 3 -27 10 -35 11 -14 13
-19 13 -39 0 -5 7 -7 16 -3 16 6 34 -12 34 -34 0 -7 -9 -13 -20 -13 -11 0 -20
4 -20 9 0 5 -12 23 -26 40 -14 17 -23 31 -20 31 4 0 2 9 -4 21 -7 11 -9 32 -6
45 9 35 16 29 11 -8z m171 -135 c-7 -7 -21 -4 -21 5 0 4 -4 14 -9 22 -6 9 -1
7 12 -4 12 -11 20 -21 18 -23z"/>
<path d="M5202 2133 c19 -3 25 -9 21 -19 -3 -8 0 -20 6 -28 6 -7 7 -17 3 -21
-4 -5 -1 -5 5 -1 10 5 10 11 1 26 -9 14 -9 22 1 34 12 14 9 16 -25 15 -29 -2
-32 -3 -12 -6z"/>
<path d="M5291 2123 c21 -28 23 -29 16 -11 -3 9 -1 19 6 22 7 2 1 5 -12 5 -21
1 -22 -1 -10 -16z"/>
<path d="M5060 2122 c0 -5 14 -6 31 -4 20 3 35 -1 41 -9 8 -12 9 -11 5 1 -4
16 -77 28 -77 12z"/>
<path d="M7098 2103 c6 -2 18 -2 25 0 6 3 1 5 -13 5 -14 0 -19 -2 -12 -5z"/>
<path d="M5546 2055 c4 -9 9 -13 12 -11 3 3 12 0 20 -7 13 -9 14 -9 8 0 -4 7
-16 18 -26 23 -16 9 -18 8 -14 -5z"/>
<path d="M1104 2051 c3 -5 30 -11 61 -15 30 -3 91 -19 135 -35 86 -32 102 -33
43 -3 -75 38 -254 77 -239 53z"/>
<path d="M5093 2053 c9 -2 23 -2 30 0 6 3 -1 5 -18 5 -16 0 -22 -2 -12 -5z"/>
<path d="M5251 2037 c9 -7 18 -19 22 -27 4 -10 6 -9 6 6 1 14 -7 24 -21 27
-20 5 -21 4 -7 -6z"/>
<path d="M5371 1974 c0 -11 3 -14 6 -6 3 7 2 16 -1 19 -3 4 -6 -2 -5 -13z"/>
<path d="M3085 1961 c22 -11 62 -14 53 -5 -4 3 -21 7 -40 10 -26 3 -29 2 -13
-5z"/>
<path d="M3192 1934 c25 -8 103 -28 173 -43 69 -16 131 -35 138 -43 7 -8 19
-18 27 -23 9 -6 7 -2 -3 8 -19 17 -18 17 9 17 58 0 5 18 -161 55 -191 43 -257
53 -183 29z"/>
<path d="M3800 1880 c-26 -57 -27 -57 -135 -36 -38 8 -74 11 -78 7 -4 -4 30
-13 76 -20 100 -15 115 -22 93 -43 -15 -16 -86 -18 -137 -4 -22 7 -23 6 -4 -5
11 -7 47 -14 81 -15 l61 -3 38 79 c21 44 36 82 34 85 -3 3 -16 -18 -29 -45z"/>
<path d="M5661 1894 c0 -11 3 -14 6 -6 3 7 2 16 -1 19 -3 4 -6 -2 -5 -13z"/>
<path d="M796 1821 c-25 -56 -28 -72 -22 -124 8 -83 55 -165 134 -238 66 -60
91 -74 73 -41 -12 22 5 56 22 45 8 -4 7 -1 -1 9 -11 14 -10 18 5 27 13 7 14
10 4 11 -8 0 -12 3 -9 6 3 3 25 -4 47 -16 50 -25 91 -41 91 -35 0 2 -18 15
-41 28 -48 29 -151 110 -192 151 -44 45 -70 105 -76 176 l-6 65 -29 -64z"/>
<path d="M4020 1838 c-12 -22 -12 -22 6 -6 10 10 15 20 12 24 -4 3 -12 -5 -18
-18z"/>
<path d="M5895 1830 c3 -5 8 -10 11 -10 2 0 4 5 4 10 0 6 -5 10 -11 10 -5 0
-7 -4 -4 -10z"/>
<path d="M5755 1819 c-27 -4 -75 -10 -105 -13 -136 -14 -230 -30 -230 -38 0
-4 10 -6 23 -4 12 3 94 12 182 21 149 16 289 44 210 43 -16 0 -52 -4 -80 -9z"/>
<path d="M3567 1799 c7 -7 15 -10 18 -7 3 3 -2 9 -12 12 -14 6 -15 5 -6 -5z"/>
<path d="M3956 1744 c-40 -64 -129 -158 -165 -176 l-30 -14 53 -29 c66 -35 90
-30 158 33 46 43 138 160 138 176 0 4 -9 2 -19 -3 -14 -8 -22 -7 -32 7 -13 16
-12 16 6 2 19 -14 19 -14 6 3 -10 13 -17 14 -26 7 -10 -8 -15 -8 -21 1 -4 8
-3 9 4 5 7 -4 12 -1 12 7 0 10 -7 13 -20 10 -11 -3 -20 0 -20 6 0 22 -16 10
-44 -35z"/>
<path d="M5810 1780 c8 -5 22 -9 30 -9 10 0 8 3 -5 9 -27 12 -43 12 -25 0z"/>
<path d="M4163 1770 c15 -5 123 -14 240 -21 203 -11 215 -13 275 -42 88 -42
176 -42 259 1 53 28 69 31 188 36 221 11 289 18 270 28 -9 6 -27 7 -40 4 -35
-9 -289 -23 -444 -25 -61 -1 -72 -3 -62 -15 14 -17 -11 -24 -84 -22 -41 1 -50
4 -49 19 2 14 -7 17 -45 18 -154 5 -220 8 -340 18 -74 6 -149 11 -165 10 l-31
-1 28 -8z m787 -34 c0 -2 -7 -6 -15 -10 -8 -3 -15 -1 -15 4 0 6 7 10 15 10 8
0 15 -2 15 -4z m-105 -36 c3 -5 -1 -10 -10 -10 -9 0 -13 5 -10 10 3 6 8 10 10
10 2 0 7 -4 10 -10z"/>
<path d="M4770 1740 c0 -5 5 -10 10 -10 6 0 10 5 10 10 0 6 -4 10 -10 10 -5 0
-10 -4 -10 -10z"/>
<path d="M1559 1633 c-7 -61 -42 -113 -89 -133 -17 -7 -29 -15 -26 -17 8 -9
64 27 89 57 27 32 41 81 35 121 -2 14 -6 2 -9 -28z"/>
</g>
</svg>
